<svg width="50" height="50" viewBox="0 0 50 50" fill="none" xmlns="http://www.w3.org/2000/svg">
<circle cx="25" cy="25" r="25" fill="white"/>
<path d="M10.9217 17.3174L8.43304 12.8746L12.5216 8.43191L17.499 11.0975L20.3432 10.0313L21.4097 4.70001H28.3425L29.4091 10.0313L32.6088 11.0975L37.4084 8.43191L41.8525 12.8746L39.0083 17.3174L40.2526 20.3384L45.23 22.1155V28.1576L40.2526 29.9347L39.0083 32.7781L41.8525 37.3985L37.4084 41.8412L32.6088 38.9979L29.4091 40.2419L28.3425 45.04H21.4097L20.3432 40.2419L17.499 38.9979L12.5216 41.8412L8.43304 37.3985L10.9217 32.7781L9.67738 29.9347L4.70001 28.1576V22.1155L9.67738 20.3384L10.9217 17.3174Z" stroke="#A3A3FF" stroke-width="2"/>
<ellipse cx="24.8761" cy="24.87" rx="9.68809" ry="9.68515" stroke="#A3A3FF" stroke-width="2"/>
</svg>
