<svg width="40" height="40" viewBox="0 0 40 40" fill="none" xmlns="http://www.w3.org/2000/svg">
<circle cx="20" cy="20" r="20" fill="white"/>
<path d="M8.73738 13.8539L6.74643 10.2997L10.0173 6.74553L13.9992 8.87804L16.2745 8.02503L17.1278 3.76001H22.674L23.5273 8.02503L26.0871 8.87804L29.9267 6.74553L33.482 10.2997L31.2066 13.8539L32.2021 16.2707L36.184 17.6924V22.5261L32.2021 23.9478L31.2066 26.2225L33.482 29.9188L29.9267 33.473L26.0871 31.1983L23.5273 32.1935L22.674 36.032H17.1278L16.2745 32.1935L13.9992 31.1983L10.0173 33.473L6.74643 29.9188L8.73738 26.2225L7.7419 23.9478L3.76001 22.5261V17.6924L7.7419 16.2707L8.73738 13.8539Z" stroke="#A3A3FF" stroke-width="2"/>
<ellipse cx="19.9009" cy="19.896" rx="7.75047" ry="7.74812" stroke="#A3A3FF" stroke-width="2"/>
</svg>
