<svg width="50" height="50" fill="none" xmlns="http://www.w3.org/2000/svg"><circle cx="25" cy="25" r="25" fill="#fff"/><path d="m10.922 17.317-2.489-4.442 4.089-4.443 4.977 2.665 2.844-1.066L21.41 4.7h6.933l1.066 5.331 3.2 1.066 4.8-2.665 4.444 4.443-2.845 4.442 1.245 3.021 4.977 1.777v6.043l-4.977 1.777-1.245 2.843 2.844 4.62-4.444 4.443-4.8-2.843-3.199 1.244-1.066 4.798H21.41l-1.067-4.798-2.844-1.244-4.977 2.843-4.089-4.443 2.489-4.62-1.245-2.843L4.7 28.158v-6.043l4.977-1.777 1.245-3.02Z" stroke="#A3A3FF" stroke-width="2"/><ellipse cx="24.876" cy="24.87" rx="9.688" ry="9.685" stroke="#A3A3FF" stroke-width="2"/></svg>