<svg width="40" height="40" fill="none" xmlns="http://www.w3.org/2000/svg"><circle cx="20" cy="20" r="20" fill="#fff"/><path d="M8.737 13.854 6.747 10.3l3.27-3.554L14 8.878l2.275-.853.854-4.265h5.546l.853 4.265 2.56.853 3.84-2.132 3.555 3.554-2.275 3.554.995 2.417 3.982 1.421v4.834l-3.982 1.422-.995 2.274 2.275 3.697-3.555 3.554-3.84-2.275-2.56.995-.853 3.839h-5.546l-.854-3.838L14 31.198l-3.982 2.275-3.27-3.554 1.99-3.697-.995-2.274-3.982-1.422v-4.834l3.982-1.421.995-2.417Z" stroke="#A3A3FF" stroke-width="2"/><ellipse cx="19.901" cy="19.896" rx="7.75" ry="7.748" stroke="#A3A3FF" stroke-width="2"/></svg>