<svg width="92" height="77" fill="none" xmlns="http://www.w3.org/2000/svg"><circle cx="80.5" cy="33.5" r="3.5" fill="#FFFBFB"/><mask id="a" fill="#fff"><rect x="21" width="51" height="25" rx="2"/></mask><rect x="21" width="51" height="25" rx="2" stroke="#fff" stroke-width="8" mask="url(#a)"/><path d="M71 62.25h17a2 2 0 0 0 2-2V26a2 2 0 0 0-2-2H4a2 2 0 0 0-2 2v34.25a2 2 0 0 0 2 2h17.5m49.5 0v-7.164a2 2 0 0 0-2-2H23.5a2 2 0 0 0-2 2v7.164m49.5 0V73a2 2 0 0 1-2 2H23.5a2 2 0 0 1-2-2V62.25" stroke="#fff" stroke-width="4"/><path stroke="#fff" stroke-width="4" stroke-linecap="round" d="M28 59h38M28 66h38"/></svg>